<svg width="640" height="254" viewBox="0 0 640 254" fill="none" xmlns="http://www.w3.org/2000/svg">
<rect width="640" height="254" fill="#C4C4C4"/>
<path d="M234.872 135.096H229.077V233.586H234.872V135.096Z" fill="#FFBE21"/>
<path d="M234.874 136.45H229.077" stroke="#A15842" stroke-width="4" stroke-miterlimit="10"/>
<path d="M202.781 213.823C203.368 212.14 204.464 210.681 205.918 209.648C207.371 208.616 209.11 208.061 210.893 208.061C212.676 208.061 214.414 208.616 215.868 209.648C217.321 210.681 218.418 212.14 219.005 213.823C219.565 212.216 220.59 210.811 221.95 209.788C223.309 208.764 224.943 208.167 226.642 208.073C225.883 206.721 224.98 205.455 223.948 204.298L220.828 200.79C219.859 199.7 219.248 198.338 219.079 196.889C218.91 195.439 219.191 193.973 219.885 192.69L222.532 187.77C221.789 188.518 217.492 192.541 210.971 192.541C204.449 192.541 200.153 188.518 199.409 187.77H199.398L202.047 192.69C202.737 193.976 203.014 195.444 202.84 196.893C202.666 198.343 202.05 199.703 201.075 200.79L197.958 204.284C196.924 205.441 196.018 206.707 195.257 208.059C196.938 208.176 198.548 208.785 199.885 209.81C201.223 210.835 202.23 212.23 202.781 213.823Z" fill="#4756DF"/>
<path d="M227.116 218.794C225.333 218.795 223.594 219.35 222.14 220.383C220.687 221.417 219.591 222.877 219.004 224.561C218.419 222.876 217.323 221.416 215.869 220.383C214.416 219.349 212.676 218.794 210.893 218.794C209.109 218.794 207.37 219.349 205.916 220.383C204.463 221.416 203.367 222.876 202.781 224.561C202.071 222.525 200.623 220.831 198.723 219.813C196.823 218.795 194.61 218.529 192.522 219.066C192.642 224.511 194.836 229.704 198.657 233.586H223.24C227.052 229.713 229.246 224.532 229.374 219.099C228.639 218.897 227.879 218.795 227.116 218.794Z" fill="#4756DF"/>
<path d="M210.952 192.55C217.473 192.55 221.77 188.528 222.513 187.78H199.39C200.134 188.521 204.43 192.55 210.952 192.55Z" fill="#30242A"/>
<path d="M202.781 224.561C203.367 222.876 204.463 221.416 205.916 220.383C207.37 219.349 209.109 218.794 210.893 218.794C212.676 218.794 214.416 219.349 215.869 220.383C217.323 221.416 218.419 222.876 219.004 224.561C219.72 222.504 221.19 220.796 223.117 219.781C225.045 218.767 227.286 218.523 229.386 219.099C229.483 215.244 228.537 211.435 226.647 208.073C224.947 208.167 223.314 208.764 221.954 209.788C220.594 210.811 219.569 212.216 219.009 213.823C218.422 212.14 217.326 210.681 215.872 209.648C214.419 208.616 212.68 208.061 210.897 208.061C209.115 208.061 207.376 208.616 205.922 209.648C204.469 210.681 203.373 212.14 202.786 213.823C202.232 212.234 201.223 210.843 199.886 209.822C198.548 208.802 196.94 208.196 195.261 208.08C193.38 211.43 192.435 215.225 192.527 219.066C194.614 218.529 196.828 218.795 198.728 219.813C200.628 220.831 202.076 222.526 202.786 224.561H202.781Z" fill="#3EC1F3"/>
<path d="M212.665 191.876C213.137 188.988 215.281 177.54 220.675 171.318" stroke="#30242A" stroke-width="4" stroke-miterlimit="10" stroke-linecap="round"/>
<path d="M210.176 191.958C210.14 188.679 209.803 172.575 206.601 162.968" stroke="#30242A" stroke-width="4" stroke-miterlimit="10" stroke-linecap="round"/>
<path d="M224.366 180.691C229.096 178.61 232.55 176.06 232.082 174.996C231.614 173.933 227.4 174.757 222.671 176.838C217.942 178.919 214.488 181.468 214.956 182.532C215.424 183.596 219.637 182.771 224.366 180.691Z" fill="#30242A"/>
<path d="M224.364 151.418C226.064 149.119 226.793 146.776 225.991 146.183C225.19 145.59 223.162 146.973 221.462 149.271C219.761 151.57 219.033 153.914 219.834 154.506C220.636 155.099 222.664 153.716 224.364 151.418Z" fill="#30242A"/>
<path d="M198.759 182.325C204.924 181.392 209.789 179.754 209.624 178.665C209.459 177.576 204.328 177.45 198.163 178.382C191.998 179.314 187.133 180.953 187.298 182.042C187.463 183.13 192.594 183.257 198.759 182.325Z" fill="#30242A"/>
<path d="M194.452 166.243V166.259C195.363 166.768 196.05 167.601 196.378 168.591C196.705 169.582 196.65 170.66 196.222 171.612C195.795 172.564 195.026 173.321 194.068 173.735C193.109 174.148 192.031 174.187 191.045 173.845V173.859C196.212 176.181 201.169 176.357 202.113 174.255C203.057 172.153 199.622 168.564 194.452 166.243Z" fill="#FF7235"/>
<path d="M209.73 149.415C208.63 149.13 207.2 150.793 206.155 153.367C204.897 150.241 203.074 148.148 201.844 148.554C200.615 148.96 200.396 151.725 201.247 154.986C198.874 153.542 196.736 153.056 196.021 153.941C195.11 155.068 196.866 157.994 199.943 160.479C200.818 161.192 201.76 161.819 202.755 162.352C202.925 161.678 203.26 161.057 203.731 160.546C204.201 160.034 204.792 159.649 205.45 159.424C206.107 159.199 206.81 159.141 207.496 159.257C208.181 159.373 208.826 159.658 209.373 160.087C209.834 159.094 210.202 158.061 210.473 157.001C211.466 153.176 211.133 149.779 209.73 149.415Z" fill="#FF7235"/>
<path d="M233.716 166.783C233.376 165.698 231.208 165.367 228.471 165.839C230.457 163.119 231.269 160.464 230.276 159.636C229.282 158.808 226.817 160.085 224.5 162.531C224.471 159.752 223.752 157.68 222.624 157.541C221.187 157.364 219.63 160.403 219.148 164.324C219.006 165.446 218.971 166.578 219.045 167.706C219.707 167.492 220.411 167.448 221.095 167.576C221.778 167.705 222.419 168.002 222.958 168.441C223.497 168.881 223.918 169.448 224.183 170.091C224.447 170.734 224.546 171.433 224.471 172.125C225.558 171.987 226.63 171.75 227.673 171.417C231.441 170.244 234.147 168.166 233.716 166.783Z" fill="#FF7235"/>
<path d="M222.99 168.465C222.45 168.015 221.805 167.709 221.116 167.575C220.426 167.441 219.713 167.483 219.045 167.698C219.179 169.565 219.651 171.002 220.361 171.523C221.024 172.136 222.558 172.342 224.467 172.118C224.541 171.434 224.445 170.743 224.187 170.106C223.93 169.468 223.518 168.905 222.99 168.465Z" fill="#30242A"/>
<path d="M205.492 159.41C204.825 159.63 204.224 160.015 203.746 160.529C203.267 161.044 202.926 161.671 202.755 162.352C204.407 163.225 205.874 163.579 206.7 163.258C207.571 163.022 208.555 161.826 209.373 160.087C208.832 159.662 208.195 159.378 207.518 159.26C206.841 159.142 206.145 159.194 205.492 159.41Z" fill="#30242A"/>
<path d="M194.912 173.248C194.469 173 194.134 172.595 193.975 172.113C193.816 171.631 193.843 171.106 194.052 170.643C194.262 170.18 194.637 169.813 195.104 169.613C195.572 169.414 196.097 169.398 196.576 169.567C196.52 168.884 196.298 168.226 195.927 167.65C195.557 167.074 195.05 166.598 194.452 166.264L191.038 173.845C191.683 174.07 192.374 174.133 193.05 174.029C193.725 173.925 194.365 173.657 194.912 173.248Z" fill="#F5EBDD"/>
<path d="M194.044 170.645C193.838 171.108 193.813 171.631 193.974 172.112C194.135 172.592 194.469 172.995 194.912 173.241C195.479 172.819 195.93 172.26 196.221 171.616C196.512 170.972 196.634 170.264 196.576 169.56C196.094 169.389 195.566 169.405 195.097 169.606C194.628 169.808 194.252 170.179 194.044 170.645Z" fill="#4856DF"/>
<path d="M349.97 174.453H289.963L290.977 170.428H317.318L327.364 131.139C328.733 125.787 331.844 121.043 336.208 117.655C340.571 114.268 345.937 112.429 351.461 112.428C364.979 112.428 374.869 125.169 371.517 138.264L365.309 162.541C364.438 165.947 362.457 168.967 359.68 171.124C356.903 173.281 353.487 174.453 349.97 174.453Z" fill="#FFB7D5"/>
<path d="M290.427 211.636V215.897H328.671V211.636H290.427Z" fill="#A15842"/>
<path d="M334.971 231.297L325.024 172.087H294.073L284.125 231.297C284.078 231.579 284.093 231.867 284.169 232.143C284.245 232.418 284.38 232.673 284.565 232.891C284.749 233.109 284.979 233.284 285.238 233.404C285.497 233.524 285.779 233.586 286.065 233.586C286.513 233.585 286.948 233.432 287.298 233.15C287.647 232.869 287.89 232.476 287.985 232.038L301.014 172.087H318.092L331.116 232.038C331.211 232.476 331.454 232.869 331.803 233.151C332.153 233.432 332.588 233.586 333.037 233.586C333.322 233.585 333.603 233.523 333.862 233.402C334.12 233.282 334.35 233.107 334.534 232.889C334.718 232.672 334.852 232.416 334.928 232.141C335.003 231.866 335.018 231.578 334.971 231.297Z" fill="#A15842"/>
<path d="M322.11 211.636V215.897H360.354V211.636H322.11Z" fill="#FFBE21"/>
<path d="M366.654 231.297L356.697 172.087H325.758L315.81 231.297C315.763 231.579 315.778 231.867 315.854 232.143C315.93 232.418 316.065 232.673 316.249 232.891C316.434 233.109 316.664 233.284 316.923 233.404C317.182 233.524 317.464 233.586 317.75 233.586C318.198 233.586 318.633 233.432 318.982 233.151C319.331 232.869 319.573 232.476 319.668 232.038L332.692 172.087H349.772L362.796 232.038C362.892 232.477 363.134 232.87 363.484 233.151C363.834 233.433 364.27 233.586 364.719 233.586C365.004 233.585 365.286 233.523 365.544 233.402C365.803 233.282 366.032 233.107 366.216 232.889C366.4 232.672 366.535 232.416 366.61 232.141C366.686 231.866 366.701 231.578 366.654 231.297Z" fill="#FFBE21"/>
<path d="M335.394 162.541L339.188 147.702H314.043C309.112 147.702 304.322 149.344 300.427 152.367C296.532 155.391 293.754 159.625 292.532 164.402L289.963 174.453H320.053C323.569 174.453 326.986 173.282 329.764 171.125C332.542 168.968 334.522 165.948 335.394 162.541Z" fill="#FFB7D5"/>
<path d="M291.598 170.034H323.521" stroke="#A15842" stroke-width="4" stroke-linecap="round" stroke-linejoin="round"/>
<path d="M317.431 169.886L323.025 148.014" stroke="#A15842" stroke-width="4" stroke-linecap="round" stroke-linejoin="round"/>
<path d="M368.73 147.195H353.63" stroke="#A15842" stroke-width="4" stroke-linecap="round" stroke-linejoin="round"/>
<path d="M371.561 136.577H352.214" stroke="#A15842" stroke-width="4" stroke-linecap="round" stroke-linejoin="round"/>
<path d="M301.087 131.783C301.087 131.783 282.157 136.938 274.116 140.961C260.859 147.589 260.903 151.963 252.82 176.452C245.357 199.084 244.536 210.053 234.242 210.487C226.382 210.817 223.806 213.389 222.532 216.914L253.632 231.67C253.988 231.839 254.395 231.865 254.771 231.743C255.146 231.621 255.46 231.36 255.649 231.014C255.841 230.66 255.888 230.245 255.78 229.857C255.671 229.47 255.415 229.14 255.066 228.938L254.413 228.56C257.303 225.059 262.878 217.598 268.437 206.266L271.976 207.917C271.976 207.917 277.693 200.488 278.599 192.06C279.779 181.176 279.071 173.84 284.042 169.581L342.014 131.773L301.087 131.783Z" fill="#FF7235"/>
<path d="M231.186 212.235C231.802 210.954 235.223 203.149 237.191 204.093C239.751 205.32 233.107 213.155 233.107 213.155L231.186 212.235Z" fill="#30242A"/>
<path d="M222.53 217.025L253.629 231.778C253.99 231.95 254.402 231.976 254.781 231.85C255.159 231.724 255.474 231.457 255.66 231.104C255.846 230.75 255.887 230.339 255.776 229.956C255.665 229.573 255.41 229.248 255.064 229.049L254.41 228.671L254.477 228.591L233.1 218.5C233.42 217.612 233.645 216.693 233.77 215.758C236.969 216.312 243.444 216.909 243.477 214.241C243.512 211.754 236.441 212.752 233.857 213.455C233.802 212.499 233.616 211.555 233.305 210.65C226.177 211.14 223.752 213.641 222.53 217.025Z" fill="#30242A"/>
<path d="M274.116 140.961C272.628 141.704 271.309 142.419 270.127 143.137L268.312 148.948L275.296 144.028L281.735 149.163L279.362 142.124L286.655 138.783L281.018 138.076C278.668 138.914 276.364 139.877 274.116 140.961Z" fill="#FFB7D5"/>
<path d="M294.693 137.936L294.221 141.011L297.298 139.829L294.693 137.936Z" fill="#FFB7D5"/>
<path d="M276.948 153.315L272.453 159.23L266.064 156.156L269.848 162.543L263.933 167.512L271.505 166.566L274.109 175.322L276.712 166.566L284.993 164.199L276.948 160.887V153.315Z" fill="#FFB7D5"/>
<path d="M251.678 198.48L252.23 196.904L259.78 196.502L253.646 192.326L256.378 185.783L250.199 189.903L249.019 188.629C248.075 191.736 247.24 194.504 246.424 196.937H246.461C246.551 196.67 246.641 196.401 246.73 196.127L251.678 198.48Z" fill="#FFB7D5"/>
<path d="M251.678 198.48L246.723 196.137C246.634 196.411 246.544 196.68 246.454 196.946C243.46 205.865 240.733 210.324 234.246 210.598C233.928 210.598 233.621 210.629 233.319 210.65C233.63 211.555 233.816 212.499 233.871 213.455C236.467 212.747 243.526 211.754 243.491 214.241C243.453 216.909 236.983 216.312 233.784 215.758C233.657 216.693 233.43 217.612 233.107 218.5L254.483 228.591C257.39 225.052 262.918 217.629 268.435 206.391L251.678 198.48Z" fill="#EAA58B"/>
<path d="M270.558 180.527L269.85 186.916L263.225 186.68L268.904 190.941L266.781 198.513L272.465 193.541L277.573 196.948C277.714 196.497 277.844 196.04 277.962 195.577L276.004 190.701L279.038 187.376C279.088 186.758 279.135 186.149 279.18 185.557L273.88 186.442L270.558 180.527Z" fill="#FFB7D5"/>
<path d="M255.8 167.245C255.203 169.09 254.561 171.094 253.854 173.271L260.149 173.656L255.8 167.245Z" fill="#FFB7D5"/>
<path d="M278.028 224.887C278.127 223.471 278.437 214.953 280.612 215.107C283.443 215.305 280.152 225.035 280.152 225.035L278.028 224.887Z" fill="#30242A"/>
<path d="M330.429 132.13C330.429 132.13 306.766 136.518 293.752 141.959C280.612 147.454 280.739 157.213 283.103 183.721C285.227 207.453 289.021 218.976 281.216 222.525C274.057 225.781 271.57 229.863 271.91 233.595H307.149C307.347 233.595 307.544 233.556 307.727 233.48C307.911 233.404 308.078 233.293 308.218 233.152C308.358 233.012 308.47 232.845 308.546 232.662C308.622 232.478 308.661 232.281 308.661 232.083C308.661 231.682 308.502 231.297 308.218 231.013C307.934 230.73 307.55 230.57 307.149 230.57H306.554C307.665 226.935 309.277 219.837 309.499 208.092H313.868C313.868 208.092 316.114 197.711 313.632 188.452C311.037 178.752 308.663 177.096 307.245 170.471H328.45C344.642 170.471 356.763 155.493 353.24 139.689C352.141 134.751 350.546 132.139 350.546 132.139L330.429 132.13Z" fill="#FF7235"/>
<path d="M315.758 145.98L311.414 151.444L304.65 149.12L308.659 155.682L303.454 162.781L310.315 159.941L314.14 166.991L314.574 159.23L321.199 157.812L315.522 154.261L315.758 145.98Z" fill="#FFB7D5"/>
<path d="M306.306 188.162L310.317 194.723L305.112 201.823L311.974 198.992L314.517 203.68C314.89 200.037 315.074 194.648 313.885 189.474L313.073 190.495L306.306 188.162Z" fill="#FFB7D5"/>
<path d="M288.615 208.083L288.311 204.426L295.993 201.462L288.721 199.954L289.524 191.972L284.805 198.147L284.663 198.088C285.116 201.899 285.513 205.228 285.734 208.109V208.083H288.615Z" fill="#FFB7D5"/>
<path d="M307.149 230.561H306.554C307.665 226.925 309.277 219.828 309.499 208.083H285.727V208.104C285.746 208.34 285.763 208.576 285.779 208.812C285.779 208.833 285.779 208.856 285.779 208.878C286.272 216.251 285.468 220.564 281.206 222.501C274.048 225.757 271.561 229.839 271.901 233.572H307.149C307.55 233.572 307.934 233.412 308.218 233.129C308.502 232.845 308.661 232.46 308.661 232.059C308.661 231.658 308.502 231.273 308.218 230.99C307.934 230.706 307.55 230.547 307.149 230.547V230.561Z" fill="#EAA58B"/>
<path d="M338.699 132.741L327.829 133.704L328.962 138.073L322.008 141.782L330.67 142.941L333.6 149.432L336.613 142.71L345.423 141.317L337.772 137.377L338.699 132.741Z" fill="#FFB7D5"/>
<path d="M286.89 163.489L289.486 155.208L297.057 156.387L291.142 151.182L295.389 146.213L287.582 149.045L286.333 146.905C284.326 149.179 283.113 152.003 282.464 155.635L283.795 155.677L286.89 163.489Z" fill="#FFB7D5"/>
<path d="M307.148 137.509C305.551 137.953 303.961 138.418 302.408 138.897L308.663 143.144L307.148 137.509Z" fill="#FFB7D5"/>
<path d="M296.829 175.794L293.516 168.932L291.86 176.504L285.708 176.032L291.385 181.001L287.837 189.283L293.997 183.54L299.103 189.427L297.539 180.527L302.744 173.665L296.829 175.794Z" fill="#FFB7D5"/>
<path d="M282.783 227.794C285.911 226.93 292.017 224.707 290.913 222.28C289.884 220.014 283.915 223.931 281.879 225.675C281.365 224.732 280.708 223.874 279.932 223.131C273.755 226.276 271.587 230.085 271.91 233.586H307.148C307.55 233.586 307.934 233.427 308.218 233.143C308.502 232.859 308.661 232.475 308.661 232.074C308.661 231.672 308.502 231.288 308.218 231.004C307.934 230.721 307.55 230.561 307.148 230.561H283.342C283.253 229.622 283.066 228.694 282.783 227.794Z" fill="#30242A"/>
<path d="M307.149 170.992L301.057 170.907" stroke="#A15842" stroke-width="4" stroke-miterlimit="10" stroke-linecap="round"/>
<path d="M311.679 136.476C305.367 138.085 298.622 140.06 293.511 142.193C282.61 146.758 280.843 154.252 281.903 171.825" stroke="#A15842" stroke-width="4" stroke-miterlimit="10" stroke-linecap="round"/>
<path d="M391.777 135.096H385.982V233.586H391.777V135.096Z" fill="#FFBE21"/>
<path d="M391.777 136.45H385.982" stroke="#A15842" stroke-width="4" stroke-miterlimit="10"/>
<path d="M307.713 61.035C304.409 60.5631 296.843 64.1141 296.592 71.1335C296.342 78.1528 302.609 80.4084 303.612 80.911L318.153 78.653L319.156 62.6088L307.713 61.035Z" fill="#A15842"/>
<path d="M333.402 43.6035C339.644 43.6035 344.704 38.5435 344.704 32.3017C344.704 26.06 339.644 21 333.402 21C327.161 21 322.101 26.06 322.101 32.3017C322.101 38.5435 327.161 43.6035 333.402 43.6035Z" fill="#A15842"/>
<path d="M326.072 40.0736C326.76 40.3922 320.959 26.6248 317.998 28.7719C315.211 30.7987 322.572 38.4598 326.072 40.0736Z" fill="#30242A"/>
<path d="M326.392 40.9161C327.025 41.6711 341.828 36.4922 339.78 33.5051C337.821 30.6313 325.76 40.1587 326.392 40.9161Z" fill="#30242A"/>
<path d="M346.044 78.7804C346.044 78.7804 355.982 70.4988 349.583 61.271C345.511 55.3889 334.438 57.7318 334.438 57.7318C334.707 54.5018 335.585 45.1961 328.587 40.0832C321.588 34.9703 312.71 37.6624 309.475 41.6971C306.24 45.7317 307.054 53.2701 305.978 58.652C304.902 64.0339 305.62 67.6934 308.937 69.4158C311.955 70.9825 315.506 70.0363 315.506 70.0363L315.128 75.7155C315.128 75.7155 308.286 75.9727 304.093 77.4898C293.99 81.147 276.24 106.228 276.24 106.228C265.12 105.756 254.708 105.284 254.708 105.284L260.151 121.375C260.151 121.375 273.873 125.87 283.811 123.263C293.893 120.623 303.451 106.464 303.451 106.464L306.755 115.928L301.075 131.781H350.529L342.248 117.11C343.68 104.1 346.044 78.7804 346.044 78.7804Z" fill="#EAA58B"/>
<path d="M330.153 75.1255L317.176 98.6563L311.868 75.9514C309.534 76.1873 306.424 76.645 304.117 77.4803C293.99 81.1469 276.24 106.228 276.24 106.228C265.12 105.756 254.708 105.284 254.708 105.284L260.151 121.375C260.151 121.375 273.873 125.87 283.811 123.263C293.893 120.623 303.451 106.464 303.451 106.464L306.755 115.927L301.075 131.781H350.529L342.248 117.112C343.663 104.097 346.023 78.778 346.023 78.778C343.832 77.4442 341.433 76.4871 338.926 75.9466C336.101 75.3096 332.996 75.6895 330.153 75.1255Z" fill="#4756DF"/>
<path d="M262.949 130.127H303.928L294.611 100.7C294.337 99.8325 293.794 99.0751 293.06 98.5375C292.326 98 291.441 97.7102 290.531 97.7103H255.899C255.226 97.7099 254.563 97.8682 253.963 98.1724C253.362 98.4767 252.842 98.9183 252.445 99.4613C252.047 100.004 251.784 100.633 251.675 101.297C251.566 101.962 251.616 102.642 251.82 103.283L259.521 127.619C259.752 128.347 260.209 128.982 260.825 129.433C261.442 129.884 262.185 130.127 262.949 130.127Z" fill="#30242A"/>
<path d="M269.055 111.022C270.143 109.536 275.077 113.462 275.44 113.785C275.629 113.462 278.198 109.538 280.081 111.022C281.716 112.31 278.123 118.065 277.167 119.533C277.127 119.577 277.078 119.613 277.023 119.637C276.969 119.661 276.91 119.674 276.85 119.674C276.79 119.674 276.731 119.661 276.676 119.637C276.621 119.613 276.572 119.577 276.532 119.533C274.789 118.065 268.111 112.31 269.055 111.022Z" fill="#A15842"/>
<path d="M275.034 112.017C275.445 111.889 275.461 110.763 275.069 109.503C274.676 108.243 274.024 107.325 273.612 107.453C273.2 107.582 273.185 108.707 273.577 109.968C273.97 111.228 274.622 112.146 275.034 112.017Z" fill="#A15842"/>
<path d="M327.723 126.814C327.842 127.195 327.869 127.598 327.803 127.991C327.738 128.384 327.58 128.757 327.344 129.078C327.108 129.4 326.8 129.661 326.445 129.841C326.089 130.022 325.696 130.116 325.297 130.117H262.949C262.185 130.117 261.441 129.874 260.825 129.423C260.209 128.973 259.752 128.337 259.521 127.609L259.266 126.805L327.723 126.814Z" fill="#30242A"/>
<path d="M401.762 130.127H219.092V136.042H401.762V130.127Z" fill="#FFBE21"/>
<path d="M365.306 162.541L369.1 147.702H346.969C342.038 147.702 337.248 149.344 333.354 152.368C329.459 155.391 326.682 159.625 325.46 164.402L322.888 174.453H349.963C353.48 174.453 356.897 173.282 359.675 171.125C362.454 168.968 364.435 165.948 365.306 162.541Z" fill="#FFB7D5"/>
<path d="M323.412 170.563L322.537 174.262" stroke="#A15842" stroke-width="4" stroke-linecap="round" stroke-linejoin="round"/>
<path d="M252.735 106.136C249.982 107.511 248.606 109.805 248.606 111.412C248.606 113.757 250.994 114.198 250.994 114.198C250.994 114.198 249.212 116.999 252.31 118.313C252.31 118.313 252.31 121.196 255.196 121.196C255.196 121.196 254.814 123.445 257.824 123.657C260.835 123.869 263.933 122.298 264.195 121.281C264.495 120.08 263.685 119.075 261.5 118.757C261.5 118.757 264.45 117.379 263.983 115.64C263.515 113.901 261.522 113.941 261.522 113.941C261.522 113.941 263.43 112.797 262.411 111.11C261.392 109.423 259.443 110.008 259.443 110.008C259.443 110.008 259.953 108.828 259.061 107.929C257.999 106.867 253.434 108.207 253.434 108.207L252.735 106.136Z" fill="#EAA58A"/>
<path d="M255.217 121.307C257.702 120.711 260.112 119.841 262.404 118.712" stroke="#A15842" stroke-width="4" stroke-miterlimit="10" stroke-linecap="round"/>
<path d="M252.303 118.299C255.748 117.354 259.037 115.913 262.067 114.021" stroke="#A15842" stroke-width="4" stroke-miterlimit="10" stroke-linecap="round"/>
<path d="M250.758 114.533C253.95 113.589 256.966 112.128 259.686 110.208" stroke="#A15842" stroke-width="4" stroke-miterlimit="10" stroke-linecap="round"/>
<path d="M349.595 61.271C345.523 55.3889 334.45 57.7318 334.45 57.7318C334.719 54.5018 335.597 45.1961 328.598 40.0832C321.6 34.9703 312.722 37.6624 309.487 41.6971C308.17 43.3487 307.526 45.5713 307.151 47.9968C309.298 48.3578 312.448 47.6193 312.448 47.6193C316.754 52.4632 320.612 53.2324 320.612 53.2324C323.625 50.2194 328.91 50.3185 329.769 54.884C330.661 59.6241 323.089 61.7547 323.089 61.7547C323.089 61.7547 322.381 70.2723 326.156 73.349C327.315 74.2674 328.685 74.8814 330.142 75.1351C332.973 75.699 336.09 75.3191 338.935 75.9515C341.443 76.492 343.842 77.449 346.032 78.7828C346.897 78.0211 347.687 77.1789 348.392 76.2676C350.874 73.1201 353.842 67.4056 349.595 61.271Z" fill="#A15842"/>
<path d="M316.94 45.8921C315.525 47.0718 313.873 47.7796 311.971 48.2515" stroke="#EAA58B" stroke-width="4" stroke-miterlimit="10" stroke-linecap="round"/>
<path d="M315.428 70.5671C316.526 70.2006 317.586 69.7264 318.592 69.1514" stroke="#A15842" stroke-width="4" stroke-miterlimit="10" stroke-linecap="round"/>
<path d="M323.379 56.9956L325.531 55.6508" stroke="#A15842" stroke-width="4" stroke-miterlimit="10" stroke-linecap="round"/>
<path d="M311.032 63.3118C311.478 63.5879 313.156 63.8026 313.821 62.5214" stroke="#A15842" stroke-width="4" stroke-miterlimit="10" stroke-linecap="round"/>
<path d="M315.416 57.2576C315.862 57.2576 316.223 56.8963 316.223 56.4507C316.223 56.005 315.862 55.6437 315.416 55.6437C314.971 55.6437 314.609 56.005 314.609 56.4507C314.609 56.8963 314.971 57.2576 315.416 57.2576Z" fill="#30242A"/>
<path d="M308.727 56.1888C309.173 56.1888 309.534 55.8275 309.534 55.3819C309.534 54.9362 309.173 54.575 308.727 54.575C308.281 54.575 307.92 54.9362 307.92 55.3819C307.92 55.8275 308.281 56.1888 308.727 56.1888Z" fill="#30242A"/>
<path d="M310.999 58.4987C310.839 59.0059 310.7 59.5581 310.792 59.7421C310.918 59.9753 311.11 60.1664 311.344 60.2918" stroke="#A15842" stroke-width="4" stroke-miterlimit="10" stroke-linecap="round"/>
<path d="M324.391 64.9021C325.952 64.9021 327.218 63.6366 327.218 62.0755C327.218 60.5144 325.952 59.2489 324.391 59.2489C322.83 59.2489 321.565 60.5144 321.565 62.0755C321.565 63.6366 322.83 64.9021 324.391 64.9021Z" fill="#F5EBDD"/>
<path d="M310.794 55.8354C311.283 53.322 309.845 50.9276 307.582 50.4874C305.319 50.0471 303.089 51.7278 302.6 54.2412C302.111 56.7546 303.548 59.1491 305.811 59.5893C308.074 60.0295 310.305 58.3489 310.794 55.8354Z" stroke="#30242A" stroke-width="4" stroke-miterlimit="10" stroke-linecap="round"/>
<path d="M321.045 57.0926C321.534 54.5792 320.097 52.1847 317.834 51.7445C315.571 51.3043 313.34 52.9849 312.851 55.4984C312.362 58.0118 313.8 60.4062 316.063 60.8464C318.326 61.2867 320.556 59.606 321.045 57.0926Z" stroke="#30242A" stroke-width="4" stroke-miterlimit="10" stroke-linecap="round"/>
<path d="M310.988 55.4549L312.618 55.6295" stroke="#30242A" stroke-width="4" stroke-miterlimit="10" stroke-linecap="round"/>
<path d="M334.99 58.0432L334.52 61.0633" stroke="#30242A" stroke-width="4" stroke-miterlimit="10" stroke-linecap="round"/>
<path d="M300.851 100.313L303.135 106.959" stroke="#30242A" stroke-width="4" stroke-linecap="round" stroke-linejoin="round"/>
<path d="M312.918 115.456H306.913" stroke="#30242A" stroke-width="4" stroke-linecap="round" stroke-linejoin="round"/>
<path d="M317.651 98.4205L319.543 107.648V116.166" stroke="#30242A" stroke-width="4" stroke-linecap="round" stroke-linejoin="round"/>
<path d="M305.065 77.275L308.659 85.4057L304.4 84.9338L319.543 107.648" stroke="#30242A" stroke-width="4" stroke-linecap="round" stroke-linejoin="round"/>
<path d="M340.077 76.3077L333.978 84.9339L339.657 84.4596L318.833 102.915" stroke="#30242A" stroke-width="4" stroke-linecap="round" stroke-linejoin="round"/>
<path d="M343.248 105.232L338.711 98.8947" stroke="#30242A" stroke-width="4" stroke-linecap="round" stroke-linejoin="round"/>
<path d="M348.498 128.591C346.028 127.767 341.594 126.177 338.921 124.58" stroke="#30242A" stroke-width="4" stroke-linecap="round" stroke-linejoin="round"/>
<path d="M280.357 69.8806C282.92 69.8806 284.998 67.8027 284.998 65.2395C284.998 62.6764 282.92 60.5985 280.357 60.5985C277.794 60.5985 275.716 62.6764 275.716 65.2395C275.716 67.8027 277.794 69.8806 280.357 69.8806Z" fill="#FFB7D5"/>
<path d="M266.486 46.7699L263.784 43.5118C263.368 43.0103 262.625 42.9409 262.123 43.3568L262.065 43.405C261.564 43.8209 261.494 44.5646 261.91 45.0662L264.612 48.3243C265.028 48.8258 265.772 48.8952 266.273 48.4793L266.331 48.4311C266.833 48.0152 266.902 47.2714 266.486 46.7699Z" fill="#4756DF"/>
<path d="M271.347 50.729L268.628 47.4493L219.771 87.961C219.345 88.3146 219.077 88.8229 219.026 89.3742C218.975 89.9256 219.144 90.4747 219.498 90.9009L219.552 90.9669C219.727 91.1778 219.942 91.3522 220.184 91.4801C220.426 91.608 220.691 91.6869 220.964 91.7123C221.237 91.7377 221.512 91.7091 221.774 91.6282C222.035 91.5473 222.279 91.4156 222.49 91.2406L237.765 78.5704V123.029H242.028V75.0312L271.347 50.729Z" fill="#3EC1F3"/>
<path d="M263.473 51.6729L264.834 53.3245C265.309 53.8975 265.669 54.5557 265.896 55.2639" stroke="#4756DF" stroke-width="4" stroke-miterlimit="10"/>
<path d="M239.895 79.5543C242.966 79.5543 245.456 77.0645 245.456 73.9931C245.456 70.9217 242.966 68.4319 239.895 68.4319C236.824 68.4319 234.334 70.9217 234.334 73.9931C234.334 77.0645 236.824 79.5543 239.895 79.5543Z" fill="#4756DF"/>
<path d="M239.895 76.1308C241.076 76.1308 242.033 75.1737 242.033 73.9931C242.033 72.8125 241.076 71.8555 239.895 71.8555C238.715 71.8555 237.757 72.8125 237.757 73.9931C237.757 75.1737 238.715 76.1308 239.895 76.1308Z" fill="#3EC1F3"/>
<path d="M284.168 62.604L277.054 68.4837" stroke="#A15842" stroke-width="4" stroke-miterlimit="10"/>
<path d="M274.952 50.1344C273.456 49.9586 272.085 49.2133 271.125 48.0533L269.237 45.7718C268.57 44.9686 267.611 44.463 266.572 44.3661C265.532 44.2692 264.497 44.589 263.692 45.255C263.295 45.585 262.966 45.9901 262.724 46.4472C262.483 46.9043 262.334 47.4045 262.286 47.9192C262.238 48.4339 262.292 48.9529 262.445 49.4468C262.597 49.9406 262.846 50.3996 263.176 50.7974L265.063 53.086C266.02 54.2427 266.495 55.7225 266.392 57.2198L265.92 64.1188C265.686 67.4944 266.543 70.8559 268.364 73.7076L268.968 74.6514L291.602 55.8773L290.791 55.1152C288.327 52.7974 285.184 51.3325 281.825 50.9366L274.952 50.1344Z" fill="#3EC1F3"/>
<path d="M242.028 123.029H237.764L231.462 124.747C230.282 125.069 229.241 125.77 228.499 126.742C227.756 127.714 227.354 128.904 227.354 130.127H252.435C252.435 128.903 252.033 127.714 251.29 126.742C250.548 125.769 249.506 125.069 248.325 124.747L242.028 123.029Z" fill="#3EC1F3"/>
<path d="M287.308 52.5388L266.594 69.6589" stroke="#4756DF" stroke-width="4" stroke-miterlimit="10" stroke-linecap="round"/>
<path d="M237.661 122.541H242.028" stroke="#4756DF" stroke-width="4" stroke-miterlimit="10" stroke-linecap="round"/>
<path d="M228.183 127.177H251.466" stroke="#4756DF" stroke-width="4" stroke-miterlimit="10" stroke-linecap="round"/>
<path d="M362.374 190.996C362.846 186.985 362.61 177.981 357.405 171.12C352.2 164.258 359.292 167.109 361.416 168.996C364.814 172.016 367.805 174.911 370.408 184.613L362.374 190.996Z" fill="#30242A"/>
<path d="M425.222 233.586H453V232.677C452.999 231.397 452.49 230.169 451.585 229.264C450.679 228.359 449.451 227.85 448.17 227.85H425.078L425.222 233.586Z" fill="#A15842"/>
<path d="M357.462 207.066L363.32 233.586H374.206V231.934C374.207 230.869 373.784 229.848 373.032 229.094C372.281 228.34 371.26 227.914 370.195 227.911C370.195 227.911 375.636 223.832 378.949 219.809C378.949 219.809 384.628 226.729 392.674 225.545L393.257 228.376C393.56 229.846 394.36 231.166 395.522 232.115C396.685 233.064 398.138 233.583 399.639 233.586H426.025C437.727 233.586 443.484 231.8 443.815 225.137C443.825 224.882 443.784 224.629 443.693 224.391C443.603 224.153 443.466 223.936 443.289 223.753C443.113 223.569 442.902 223.424 442.667 223.324C442.433 223.225 442.182 223.173 441.927 223.174H434.561C434.257 223.174 433.957 223.106 433.683 222.975C433.409 222.844 433.168 222.653 432.978 222.416L429.842 218.525C428.913 217.374 427.672 216.514 426.268 216.047C424.864 215.579 423.356 215.525 421.922 215.89L415.615 217.501C415.615 217.501 404.44 201.443 394.318 190.29C384.645 179.642 366.449 178.493 359.281 192.362C356.976 196.9 356.333 202.102 357.462 207.066Z" fill="#A15842"/>
<path d="M423.422 233.586V232.677C423.422 232.043 423.297 231.415 423.054 230.829C422.812 230.244 422.456 229.711 422.007 229.263C421.559 228.815 421.026 228.459 420.44 228.217C419.854 227.974 419.226 227.85 418.592 227.85H415.376" stroke="#30242A" stroke-width="4" stroke-miterlimit="10"/>
<path d="M379.388 219.998C381.039 218.032 386.676 210.796 386.273 203.718C385.841 196.144 381.304 192.123 381.304 192.123" stroke="#30242A" stroke-width="4" stroke-miterlimit="10" stroke-linecap="round"/>
<path d="M391.241 215.546C391.241 215.546 391.543 221.144 392.15 225.325" stroke="#30242A" stroke-width="4" stroke-miterlimit="10" stroke-linecap="round"/>
<path d="M368.527 231.163V233.35" stroke="#30242A" stroke-width="4" stroke-miterlimit="10" stroke-linecap="round"/>
<path d="M371.13 231.163V233.35" stroke="#30242A" stroke-width="4" stroke-miterlimit="10" stroke-linecap="round"/>
<path d="M418.217 231.163V233.35" stroke="#30242A" stroke-width="4" stroke-miterlimit="10" stroke-linecap="round"/>
<path d="M420.819 231.163V233.35" stroke="#30242A" stroke-width="4" stroke-miterlimit="10" stroke-linecap="round"/>
<path d="M427.799 224.773C428.387 224.773 428.863 224.297 428.863 223.709C428.863 223.122 428.387 222.645 427.799 222.645C427.211 222.645 426.735 223.122 426.735 223.709C426.735 224.297 427.211 224.773 427.799 224.773Z" fill="#30242A"/>
<path d="M421.992 215.869V215.84L415.605 217.492L421.912 215.881L421.992 215.869Z" fill="#30242A"/>
<path d="M406.273 227.956C404.424 228.9 401.809 230.747 402.026 233.546H412.299L414.458 230.141C414.811 229.584 415.299 229.125 415.876 228.807C416.454 228.489 417.102 228.322 417.762 228.322H418.448L421.968 215.94L421.916 215.885L415.61 217.497L409.572 225.231C408.683 226.368 407.558 227.298 406.273 227.956Z" fill="#30242A"/>
<path d="M391.27 196.071C391.27 196.071 388.412 205.962 397.64 209.697C402.319 211.584 406.205 210.152 408.902 208.281C404.827 202.854 399.436 195.946 394.316 190.302C393.032 188.889 391.589 187.63 390.017 186.548C388.62 188.45 387.091 193.155 391.27 196.071Z" fill="#EAA58B"/>
<path d="M367.699 203.243C369.855 203.243 371.604 201.495 371.604 199.338C371.604 197.182 369.855 195.434 367.699 195.434C365.542 195.434 363.794 197.182 363.794 199.338C363.794 201.495 365.542 203.243 367.699 203.243Z" fill="#EAA58B"/>
<path d="M441.936 223.174H440.521C440.443 223.568 440.453 223.975 440.551 224.366C440.649 224.756 440.832 225.12 441.087 225.431C441.342 225.742 441.663 225.993 442.026 226.166C442.39 226.338 442.787 226.429 443.189 226.43C443.356 226.43 443.522 226.414 443.685 226.382C443.757 225.97 443.803 225.554 443.824 225.137C443.834 224.882 443.793 224.629 443.703 224.391C443.612 224.153 443.475 223.936 443.299 223.753C443.122 223.57 442.911 223.424 442.677 223.324C442.443 223.225 442.191 223.173 441.936 223.174Z" fill="#30242A"/>
<path d="M447.557 231.163V233.296" stroke="#30242A" stroke-width="4" stroke-miterlimit="10" stroke-linecap="round"/>
<path d="M450.159 231.163V233.296" stroke="#30242A" stroke-width="4" stroke-miterlimit="10" stroke-linecap="round"/>
<path d="M433.277 233.303C439.063 232.72 442.512 231.153 443.765 227.819" stroke="#30242A" stroke-width="4" stroke-linecap="round" stroke-linejoin="round"/>
<path d="M338.947 109.165C336.035 108.905 333.108 108.872 330.191 109.069C326.019 109.411 320.411 110.503 318.158 111.593C315.904 112.683 307.276 116.532 309.6 117.822C311.724 119.002 316.178 117.228 316.178 117.228C316.178 117.228 311.733 121.314 310.968 123.025C310.204 124.735 312.731 125.696 312.731 125.696C313.396 128.617 316.374 127.361 316.374 127.361C318.25 131.351 328.384 122.706 328.384 122.706C330.795 122.957 333.229 122.854 335.611 122.402C335.611 122.402 336.894 123.121 338.954 124.122L338.947 109.165Z" fill="#EAA58A"/>
<path d="M364.264 129.181C383.194 120.189 355.753 86.5926 346.044 78.7805L340.603 100.787L347.464 110.251C344.459 109.732 341.585 109.375 338.947 109.165V124.122C344.954 127.043 357.577 132.366 364.264 129.181Z" fill="#4756DF"/>
<path d="M315.272 117.475C316.952 116.086 319.741 113.839 321.822 112.485" stroke="#A15842" stroke-width="4" stroke-miterlimit="10" stroke-linecap="round"/>
<path d="M324.115 115.805C319.281 118.936 314.876 123.119 312.696 125.309" stroke="#A15842" stroke-width="4" stroke-miterlimit="10" stroke-linecap="round"/>
<path d="M326.26 119.346C322.957 121.614 319.123 125.051 316.62 127.411" stroke="#A15842" stroke-width="4" stroke-miterlimit="10" stroke-linecap="round"/>
<path d="M383.052 118.075C383.41 118.075 383.752 118.218 384.005 118.471C384.258 118.724 384.401 119.066 384.401 119.424V119.625C384.401 119.982 384.258 120.325 384.005 120.578C383.752 120.831 383.41 120.974 383.052 120.974H376.099V118.075H383.052ZM383.052 116.187H374.466C374.432 116.187 374.399 116.194 374.368 116.207C374.337 116.22 374.308 116.239 374.285 116.262C374.261 116.286 374.242 116.315 374.23 116.346C374.217 116.377 374.211 116.411 374.211 116.444V122.614C374.211 122.682 374.238 122.747 374.286 122.794C374.333 122.842 374.398 122.869 374.466 122.869H383.052C383.477 122.869 383.899 122.785 384.292 122.622C384.685 122.459 385.043 122.22 385.343 121.918C385.644 121.617 385.882 121.259 386.045 120.866C386.207 120.472 386.29 120.05 386.289 119.625V119.417C386.289 118.559 385.948 117.735 385.341 117.128C384.734 116.521 383.91 116.18 383.052 116.18V116.187Z" fill="#3EC1F3"/>
<path d="M372.67 115.17C365.639 115.17 362.39 109.566 362.39 109.566L367.109 130.127H378.218L382.936 109.566C381.841 111.294 380.323 112.715 378.528 113.695C376.732 114.675 374.716 115.183 372.67 115.17Z" fill="#3EC1F3"/>
<path d="M372.67 115.17C374.719 115.185 376.737 114.679 378.536 113.698C380.334 112.718 381.853 111.296 382.951 109.566H362.39C362.39 109.566 365.639 115.17 372.67 115.17Z" fill="#30242A"/>
</svg>
